# xmcd
#
# Track frame offsets:
#	150
#	9659
#	22569
#	32930
#	42503
#	54901
#	63226
#	74551
#	85989
#	96091
#	108252
#	120978
#	132861
#	144497
#	154593
#	165015
#	173552
#
# Disc length: 2428 seconds
#
# Revision: 2
# Processed by: cddbd v1.5.2PL0 Copyright (c) Steve Scherf et al.
# Submitted via: audiograbber 1.83.01
#
DISCID=ca097a11
DTITLE=Willie Nelson - Country, unlimited collection [CD 3)
DYEAR=1900
DGENRE=Country
TTITLE0=One step beyond
TTITLE1=Any old arms won't do
TTITLE2=I feel sorry for him
TTITLE3=Right from wrong
TTITLE4=I can't find the time
TTITLE5=Things to remember
TTITLE6=Go away
TTITLE7=Suffer in silence
TTITLE8=Healing hands of time
TTITLE9=Happiness lives next door
TTITLE10=I just don't understand
TTITLE11=I'll stay around
TTITLE12=I'm gonna lose a lot of teardrops
TTITLE13=New way to cry
TTITLE14=Pride wins again
TTITLE15=Slow down old world
TTITLE16=Why are you picking on me
EXTD=
EXTT0=
EXTT1=
EXTT2=
EXTT3=
EXTT4=
EXTT5=
EXTT6=
EXTT7=
EXTT8=
EXTT9=
EXTT10=
EXTT11=
EXTT12=
EXTT13=
EXTT14=
EXTT15=
EXTT16=
PLAYORDER=
